#N canvas 37 23 1153 466 12;
#X obj 59 35 cnv 15 1050 400 empty empty empty 20 12 0 14 -261234 -66577
0;
#N canvas 0 50 450 250 (subpatch) 0;
#X array ch2G 14088 float 2;
#X coords 0 1 14088 -1 200 140 1 0 0;
#X restore 613 64 graph;
#N canvas 0 50 450 250 (subpatch) 0;
#X array ch3G 2670 float 2;
#X coords 0 1 2670 -1 200 140 1 0 0;
#X restore 94 258 graph;
#N canvas 0 50 450 250 (subpatch) 0;
#X array ch4G 10865 float 2;
#X coords 0 1 10865 -1 200 140 1 0 0;
#X restore 612 260 graph;
#N canvas 0 50 450 250 (subpatch) 0;
#X array ch1G 93786 float 2;
#X coords 0 1 93786 -1 200 140 1 0 0;
#X restore 97 65 graph;
#X obj 324 177 soundfiler;
#X obj 830 165 soundfiler;
#X obj 317 362 soundfiler;
#X obj 832 364 soundfiler;
#X obj 500 164 dac~;
#X obj 1004 175 dac~;
#X obj 495 361 dac~;
#X obj 992 364 dac~;
#X obj 576 116 bng 15 250 50 0 empty empty empty 17 7 0 10 -262144
-1 -1;
#X obj 1081 121 bng 15 250 50 0 empty empty empty 17 7 0 10 -262144
-1 -1;
#X obj 560 313 bng 15 250 50 0 empty empty empty 17 7 0 10 -262144
-1 -1;
#X obj 1052 308 bng 15 250 50 0 empty empty empty 17 7 0 10 -262144
-1 -1;
#X obj 500 75 r channel;
#X obj 1004 78 r channel;
#X obj 495 271 r channel;
#X obj 992 266 r channel;
#X obj 324 74 loadbang;
#X obj 317 272 loadbang;
#X obj 830 79 loadbang;
#X obj 832 277 loadbang;
#X obj 500 98 sel 11;
#X obj 1004 103 sel 12;
#X obj 495 295 sel 13;
#X obj 992 290 sel 14;
#X obj 500 133 tabplay~ ch1G;
#X obj 1004 141 tabplay~ ch2G;
#X obj 495 332 tabplay~ ch3G;
#X obj 992 326 tabplay~ ch4G;
#X msg 324 116 read -resize green/bark.wav ch1G, f 14;
#X msg 830 106 read -resize green/snare-drum.wav ch2G, f 20;
#X msg 317 299 read -resize green/close-hi-hat.wav ch3G, f 22;
#X msg 832 307 read -resize green/hi-hat.wav ch4G, f 16;
#X connect 17 0 25 0;
#X connect 18 0 26 0;
#X connect 19 0 27 0;
#X connect 20 0 28 0;
#X connect 21 0 33 0;
#X connect 22 0 35 0;
#X connect 23 0 34 0;
#X connect 24 0 36 0;
#X connect 25 0 13 0;
#X connect 25 0 29 0;
#X connect 26 0 14 0;
#X connect 26 0 30 0;
#X connect 27 0 15 0;
#X connect 27 0 31 0;
#X connect 28 0 16 0;
#X connect 28 0 32 0;
#X connect 29 0 9 0;
#X connect 29 0 9 1;
#X connect 30 0 10 0;
#X connect 30 0 10 1;
#X connect 31 0 11 0;
#X connect 31 0 11 1;
#X connect 32 0 12 0;
#X connect 32 0 12 1;
#X connect 33 0 5 0;
#X connect 34 0 6 0;
#X connect 35 0 7 0;
#X connect 36 0 8 0;
