#N canvas 168 299 1153 466 12;
#X obj 59 35 cnv 15 1050 400 empty empty empty 20 12 0 14 -261234 -66577
0;
#N canvas 0 50 450 250 (subpatch) 0;
#X array ch2R 161235 float 2;
#X coords 0 1 161235 -1 200 140 1 0 0;
#X restore 613 64 graph;
#N canvas 0 50 450 250 (subpatch) 0;
#X array ch3R 83446 float 2;
#X coords 0 1 83446 -1 200 140 1 0 0;
#X restore 95 258 graph;
#N canvas 0 50 450 250 (subpatch) 0;
#X array ch4R 170873 float 2;
#X coords 0 1 170873 -1 200 140 1 0 0;
#X restore 612 260 graph;
#N canvas 0 50 450 250 (subpatch) 0;
#X array ch1R 148838 float 2;
#X coords 0 1 148838 -1 200 140 1 0 0;
#X restore 97 65 graph;
#X obj 324 177 soundfiler;
#X obj 830 165 soundfiler;
#X obj 317 362 soundfiler;
#X obj 832 364 soundfiler;
#X obj 500 164 dac~;
#X obj 973 175 dac~;
#X obj 480 361 dac~;
#X obj 973 352 dac~;
#X obj 576 116 bng 15 250 50 0 empty empty empty 17 7 0 10 -262144
-1 -1;
#X obj 1050 121 bng 15 250 50 0 empty empty empty 17 7 0 10 -262144
-1 -1;
#X obj 545 313 bng 15 250 50 0 empty empty empty 17 7 0 10 -262144
-1 -1;
#X obj 1033 296 bng 15 250 50 0 empty empty empty 17 7 0 10 -262144
-1 -1;
#X obj 500 75 r channel;
#X obj 973 78 r channel;
#X obj 480 271 r channel;
#X obj 973 254 r channel;
#X obj 324 74 loadbang;
#X obj 317 272 loadbang;
#X obj 830 79 loadbang;
#X obj 832 277 loadbang;
#X obj 500 134 tabplay~ ch1R;
#X obj 973 141 tabplay~ ch2R;
#X obj 500 98 sel 7;
#X obj 973 103 sel 8;
#X obj 480 295 sel 9;
#X obj 973 278 sel 10;
#X obj 480 332 tabplay~ ch3R;
#X obj 973 313 tabplay~ ch4R;
#X msg 324 116 read -resize red/KW.wav ch1R, f 15;
#X msg 830 106 read -resize red/SM.wav ch2R, f 18;
#X msg 317 299 read -resize red/WG.wav ch3R, f 20;
#X msg 832 307 read -resize red/SP.wav ch4R, f 15;
#X connect 17 0 27 0;
#X connect 18 0 28 0;
#X connect 19 0 29 0;
#X connect 20 0 30 0;
#X connect 21 0 33 0;
#X connect 22 0 35 0;
#X connect 23 0 34 0;
#X connect 24 0 36 0;
#X connect 25 0 9 0;
#X connect 25 0 9 1;
#X connect 26 0 10 0;
#X connect 26 0 10 1;
#X connect 27 0 13 0;
#X connect 27 0 25 0;
#X connect 28 0 14 0;
#X connect 28 0 26 0;
#X connect 29 0 15 0;
#X connect 29 0 31 0;
#X connect 30 0 16 0;
#X connect 30 0 32 0;
#X connect 31 0 11 0;
#X connect 31 0 11 1;
#X connect 32 0 12 0;
#X connect 32 0 12 1;
#X connect 33 0 5 0;
#X connect 34 0 6 0;
#X connect 35 0 7 0;
#X connect 36 0 8 0;
