#N canvas 93 270 1153 466 12;
#X obj 59 35 cnv 15 1050 400 empty empty empty 20 12 0 14 -261234 -66577
0;
#N canvas 0 50 450 250 (subpatch) 0;
#X array ch2B 396900 float 2;
#X coords 0 1 396900 -1 200 140 1 0 0;
#X restore 613 64 graph;
#N canvas 0 50 450 250 (subpatch) 0;
#X array ch3B 154350 float 2;
#X coords 0 1 154350 -1 200 140 1 0 0;
#X restore 95 258 graph;
#N canvas 0 50 450 250 (subpatch) 0;
#X array ch4B 88200 float 2;
#X coords 0 1 88200 -1 200 140 1 0 0;
#X restore 612 260 graph;
#N canvas 0 50 450 250 (subpatch) 0;
#X array ch1B 485100 float 2;
#X coords 0 1 485100 -1 200 140 1 0 0;
#X restore 97 65 graph;
#X obj 324 177 soundfiler;
#X obj 830 165 soundfiler;
#X obj 317 362 soundfiler;
#X obj 832 364 soundfiler;
#X obj 500 164 dac~;
#X obj 991 175 dac~;
#X obj 503 362 dac~;
#X obj 1002 370 dac~;
#X obj 576 116 bng 15 250 50 0 empty empty empty 17 7 0 10 -262144
-1 -1;
#X obj 1068 121 bng 15 250 50 0 empty empty empty 17 7 0 10 -262144
-1 -1;
#X obj 568 314 bng 15 250 50 0 empty empty empty 17 7 0 10 -262144
-1 -1;
#X obj 500 98 sel 3;
#X obj 991 103 sel 4;
#X obj 503 296 sel 5;
#X obj 1002 289 sel 6;
#X obj 1062 307 bng 15 250 50 0 empty empty empty 17 7 0 10 -262144
-1 -1;
#X obj 500 75 r channel;
#X obj 991 78 r channel;
#X obj 503 272 r channel;
#X obj 1002 265 r channel;
#X obj 324 74 loadbang;
#X obj 317 272 loadbang;
#X obj 830 79 loadbang;
#X obj 832 277 loadbang;
#X obj 500 133 tabplay~ ch1B;
#X obj 991 141 tabplay~ ch2B;
#X obj 1002 324 tabplay~ ch4B;
#X obj 503 333 tabplay~ ch3B;
#X msg 324 116 read -resize black/SKR.wav ch1B, f 19;
#X msg 830 106 read -resize black/BNG1.wav ch2B, f 20;
#X msg 317 299 read -resize black/BNG2.wav ch3B, f 22;
#X msg 832 307 read -resize black/TR.wav ch4B, f 17;
#X connect 16 0 13 0;
#X connect 16 0 29 0;
#X connect 17 0 14 0;
#X connect 17 0 30 0;
#X connect 18 0 15 0;
#X connect 18 0 32 0;
#X connect 19 0 20 0;
#X connect 19 0 31 0;
#X connect 21 0 16 0;
#X connect 22 0 17 0;
#X connect 23 0 18 0;
#X connect 24 0 19 0;
#X connect 25 0 33 0;
#X connect 26 0 35 0;
#X connect 27 0 34 0;
#X connect 28 0 36 0;
#X connect 29 0 9 0;
#X connect 29 0 9 1;
#X connect 30 0 10 0;
#X connect 30 0 10 1;
#X connect 31 0 12 0;
#X connect 31 0 12 1;
#X connect 32 0 11 0;
#X connect 32 0 11 1;
#X connect 33 0 5 0;
#X connect 34 0 6 0;
#X connect 35 0 7 0;
#X connect 36 0 8 0;
